<svg width="2544" height="1511" viewBox="0 0 2544 1511" fill="none" xmlns="http://www.w3.org/2000/svg">
<path d="M1 6.66634V741.5V1504C1 1507.31 3.6863 1510 7.00001 1510H1461.5C1464.81 1510 1467.5 1507.31 1467.5 1504V1392.5C1467.5 1389.19 1470.19 1386.5 1473.5 1386.5H1539C1542.31 1386.5 1545 1389.19 1545 1392.5V1467.83C1545 1471.21 1547.79 1473.92 1551.17 1473.83L2210.49 1455.53C2211.16 1455.51 2211.82 1455.38 2212.45 1455.14L2432.38 1371.87C2434.58 1371.04 2436.09 1368.99 2436.24 1366.63L2468.5 849.5L2542.85 337.969C2543.24 335.323 2541.82 332.741 2539.39 331.639L2279.32 214.039C2275.53 212.32 2271.18 214.906 2270.87 219.065L2248.43 523.71C2248.19 526.938 2245.43 529.396 2242.2 529.264L1516.6 499.748C1513.25 499.612 1510.66 496.754 1510.85 493.406L1536.64 48.676C1536.84 45.2961 1534.2 42.4234 1530.82 42.3309L7.164 0.668547C3.78732 0.576216 1 3.28839 1 6.66634Z" fill="#EEEEEE" stroke="black"/>
<path d="M939 209H125C121.686 209 119 206.314 119 203V83C119 79.6863 121.686 77 125 77H939C942.314 77 945 79.6863 945 83V203C945 206.314 942.314 209 939 209Z" fill="#B6B6B6" stroke="black"/>
<path d="M542 473H125C121.686 473 119 470.314 119 467V296C119 292.686 121.686 290 125 290H542C545.314 290 548 292.686 548 296V467C548 470.314 545.314 473 542 473Z" fill="#B6B6B6" stroke="black"/>
<path d="M1426 481H1044C1040.69 481 1038 478.314 1038 475V121C1038 117.686 1040.69 115 1044 115H1426C1429.31 115 1432 117.686 1432 121V475C1432 478.314 1429.31 481 1426 481Z" fill="#B6B6B6" stroke="black"/>
<path d="M1360 1158H1153C1149.69 1158 1147 1155.31 1147 1152V796C1147 792.686 1149.69 790 1153 790H1360C1363.31 790 1366 792.686 1366 796V1152C1366 1155.31 1363.31 1158 1360 1158Z" fill="#B6B6B6" stroke="black"/>
<path d="M1774 1285V1375C1774 1378.31 1771.31 1381 1768 1381H1712C1708.69 1381 1706 1383.69 1706 1387V1439C1706 1442.31 1703.31 1445 1700 1445H1641C1637.69 1445 1635 1442.31 1635 1439V1387C1635 1383.69 1632.31 1381 1629 1381H1561C1557.69 1381 1555 1378.31 1555 1375V1285C1555 1281.69 1557.69 1279 1561 1279H1768C1771.31 1279 1774 1281.69 1774 1285Z" fill="#B6B6B6" stroke="black"/>
<path d="M2389 680H2279C2275.69 680 2273 677.314 2273 674V560.75C2273 557.851 2270.65 555.5 2267.75 555.5C2264.85 555.5 2262.5 553.149 2262.5 550.25V472.5C2262.5 469.186 2265.19 466.5 2268.5 466.5H2333C2336.31 466.5 2339 463.814 2339 460.5V409C2339 405.686 2336.31 403 2333 403H2279C2275.69 403 2273 400.314 2273 397V318C2273 314.686 2275.69 312 2279 312H2370C2373.31 312 2376 314.686 2376 318V343C2376 346.314 2378.69 349 2382 349H2416.7C2419.02 349 2421.13 350.336 2422.13 352.431L2436.76 383.324C2437.81 385.544 2437.4 388.18 2435.73 389.979L2413.61 413.773C2412.57 414.883 2412 416.343 2412 417.858V460.5C2412 463.814 2414.69 466.5 2418 466.5H2516.12C2519.76 466.5 2522.56 469.71 2522.07 473.313L2510.71 556.313C2510.3 559.285 2507.76 561.5 2504.77 561.5H2401C2397.69 561.5 2395 564.186 2395 567.5V674C2395 677.314 2392.31 680 2389 680Z" fill="#B6B6B6" stroke="black"/>
<path d="M1743.64 1130.04L1681.89 1145.4C1678.67 1146.2 1675.42 1144.24 1674.62 1141.03L1614.45 899.076C1613.65 895.86 1615.61 892.605 1618.82 891.805L1680.57 876.448C1683.79 875.648 1687.05 877.607 1687.85 880.823L1748.02 1122.77C1748.82 1125.99 1746.86 1129.24 1743.64 1130.04Z" fill="#B6B6B6" stroke="black"/>
<path d="M2109.18 1054.45L2047.09 1069.89C2043.88 1070.69 2040.62 1068.73 2039.82 1065.51L2018.45 979.571C2017.65 976.356 2019.61 973.1 2022.82 972.301L2084.91 956.86C2088.12 956.061 2091.38 958.019 2092.18 961.235L2113.55 1047.18C2114.35 1050.39 2112.39 1053.65 2109.18 1054.45Z" fill="#B6B6B6" stroke="black"/>
<path d="M2102.18 925.448L1825.58 994.236C1822.36 995.036 1819.11 993.077 1818.31 989.861L1784.45 853.708C1783.65 850.493 1785.61 847.237 1788.82 846.438L2065.42 777.65C2068.64 776.85 2071.89 778.809 2072.69 782.025L2106.55 918.177C2107.35 921.393 2105.39 924.648 2102.18 925.448Z" fill="#B6B6B6" stroke="black"/>
<path d="M978 1467H861C857.686 1467 855 1464.31 855 1461V1416.5C855 1413.19 857.686 1410.5 861 1410.5H871.5C874.814 1410.5 877.5 1407.81 877.5 1404.5V1145.5C877.5 1142.19 880.186 1139.5 883.5 1139.5H909.384C912.332 1139.5 914.843 1137.36 915.309 1134.45L940.191 979.051C940.657 976.141 943.168 974 946.116 974H978C981.314 974 984 976.686 984 980V1461C984 1464.31 981.314 1467 978 1467Z" fill="#B6B6B6" stroke="black"/>
<path d="M1461 1405H1033C1029.69 1405 1027 1402.31 1027 1399V1238C1027 1234.69 1029.69 1232 1033 1232H1461C1464.31 1232 1467 1234.69 1467 1238V1399C1467 1402.31 1464.31 1405 1461 1405Z" fill="#B6B6B6" stroke="black"/>
<path d="M1990 1362H1783C1779.69 1362 1777 1359.31 1777 1356V1202.5C1777 1199.19 1779.69 1196.5 1783 1196.5H1852.5C1855.81 1196.5 1858.5 1193.81 1858.5 1190.5V1178C1858.5 1174.69 1861.19 1172 1864.5 1172H1971.5C1974.81 1172 1977.5 1169.31 1977.5 1166V1119.25C1977.5 1116.07 1974.93 1113.5 1971.75 1113.5C1968.57 1113.5 1966 1110.93 1966 1107.75V1094.18C1966 1091.43 1967.87 1089.03 1970.54 1088.36L1988.54 1083.86C1992.33 1082.92 1996 1085.78 1996 1089.68V1356C1996 1359.31 1993.31 1362 1990 1362Z" fill="#B6B6B6" stroke="black"/>
<path d="M2402.73 1323H2228C2224.69 1323 2222 1320.31 2222 1317V1186.5C2222 1183.19 2224.69 1180.5 2228 1180.5H2353.5C2356.81 1180.5 2359.5 1177.81 2359.5 1174.5L2359.5 1155.5C2359.5 1152.19 2362.19 1149.5 2365.5 1149.5C2368.81 1149.5 2371.5 1146.81 2371.5 1143.5L2371.5 1089C2371.5 1085.69 2374.19 1083 2377.5 1083H2428C2431.31 1083 2434 1085.69 2434 1089L2434 1165.5C2434 1168.81 2431.31 1171.5 2428 1171.5H2410.5C2407.19 1171.5 2404.5 1174.19 2404.5 1177.5V1189.5C2404.5 1192.81 2407.19 1195.5 2410.5 1195.5H2417.67C2421.29 1195.5 2424.09 1198.68 2423.62 1202.27L2408.68 1317.77C2408.29 1320.76 2405.74 1323 2402.73 1323Z" fill="#B6B6B6" stroke="black"/>
<path d="M2192 1410H2072.5C2069.19 1410 2066.5 1407.31 2066.5 1404V1340C2066.5 1336.69 2069.19 1334 2072.5 1334H2090C2093.31 1334 2096 1331.31 2096 1328V1311C2096 1307.69 2093.31 1305 2090 1305H2023C2019.69 1305 2017 1302.31 2017 1299V1158C2017 1154.69 2019.69 1152 2023 1152H2113.5C2116.81 1152 2119.5 1154.69 2119.5 1158V1207.5C2119.5 1210.81 2122.19 1213.5 2125.5 1213.5H2192C2195.31 1213.5 2198 1216.19 2198 1219.5V1299C2198 1302.31 2195.31 1305 2192 1305H2183C2179.69 1305 2177 1307.69 2177 1311V1340C2177 1343.31 2179.69 1346 2183 1346H2192C2195.31 1346 2198 1348.69 2198 1352V1404C2198 1407.31 2195.31 1410 2192 1410Z" fill="#B6B6B6" stroke="black"/>
<path d="M1006 737.5H7C3.68629 737.5 1 740.186 1 743.5V1462.5C1 1465.81 3.68628 1468.5 6.99999 1468.5H820.5C823.814 1468.5 826.5 1465.81 826.5 1462.5V894.5C826.5 891.186 829.186 888.5 832.5 888.5H1006C1009.31 888.5 1012 885.814 1012 882.5V743.5C1012 740.186 1009.31 737.5 1006 737.5Z" fill="#B6B6B6" stroke="black"/>
<path d="M709 1363.5V897C709 893.686 706.314 891 703 891H125.5C122.186 891 119.5 893.686 119.5 897V1363.5C119.5 1366.81 122.186 1369.5 125.5 1369.5H703C706.314 1369.5 709 1366.81 709 1363.5Z" fill="#EEEEEE" stroke="black"/>
<path d="M245 572.467V679C245 682.314 242.314 685 239 685H231.25H217.5H205.5H190.5H176.5H162.5H145.5H129H115H101H89.5H84C80.6863 685 78 682.314 78 679V526.06C78 522.042 81.8719 519.159 85.7209 520.312L89.5 521.443L101 524.886L115 529.078L129 533.269L145.5 538.21L162.5 543.299L176.5 547.491L190.5 551.683L205.5 556.174L217.5 559.766L231.25 563.883L240.721 566.719C243.26 567.479 245 569.816 245 572.467Z" fill="#B6B6B6"/>
<path d="M89.5 521.443L85.7209 520.312C81.8719 519.159 78 522.042 78 526.06V679C78 682.314 80.6863 685 84 685H89.5M89.5 521.443V685M89.5 521.443L101 524.886M89.5 685H101M101 685V524.886M101 685H115M101 524.886L115 529.078M115 529.078V685M115 529.078L129 533.269M115 685H129M129 685V533.269M129 685H145.5M129 533.269L145.5 538.21M145.5 538.21V685M145.5 538.21L162.5 543.299M145.5 685H162.5M162.5 685V543.299M162.5 685H176.5M162.5 543.299L176.5 547.491M176.5 547.491V685M176.5 547.491L190.5 551.683M176.5 685H190.5M190.5 685V551.683M190.5 685H205.5M190.5 551.683L205.5 556.174M205.5 556.174V685M205.5 556.174L217.5 559.766M205.5 685H217.5M217.5 685V559.766M217.5 685H231.25M217.5 559.766L231.25 563.883M231.25 563.883L240.721 566.719C243.26 567.479 245 569.816 245 572.467V679C245 682.314 242.314 685 239 685H231.25M231.25 563.883V685" stroke="black"/>
<path d="M722.784 439L601 439C597.686 439 595 436.314 595 433V428.379V417.757V408.488V396.901V386.087V375.272V362.141V349.395V338.581V327.766V318.883V316C595 312.686 597.686 310 601 310L773.836 310C778.16 310 781.064 314.436 779.335 318.4L779.124 318.883L775.248 327.766L770.529 338.581L765.81 349.395L760.249 362.141L754.519 375.272L749.801 386.087L745.082 396.901L740.026 408.488L735.981 417.757L731.347 428.379L728.284 435.4C727.329 437.586 725.17 439 722.784 439Z" fill="#B6B6B6"/>
<path d="M779.124 318.883L779.335 318.4C781.064 314.436 778.16 310 773.836 310L601 310C597.686 310 595 312.686 595 316V318.883M779.124 318.883L595 318.883M779.124 318.883L775.248 327.766M595 318.883V327.766M595 327.766L775.248 327.766M595 327.766V338.581M775.248 327.766L770.529 338.581M770.529 338.581L595 338.581M770.529 338.581L765.81 349.395M595 338.581V349.395M595 349.395L765.81 349.395M595 349.395V362.141M765.81 349.395L760.249 362.141M760.249 362.141L595 362.141M760.249 362.141L754.519 375.272M595 362.141V375.272M595 375.272L754.519 375.272M595 375.272V386.087M754.519 375.272L749.801 386.087M749.801 386.087L595 386.087M749.801 386.087L745.082 396.901M595 386.087V396.901M595 396.901L745.082 396.901M595 396.901V408.488M745.082 396.901L740.026 408.488M740.026 408.488L595 408.488M740.026 408.488L735.981 417.757M595 408.488V417.757M595 417.757L735.981 417.757M595 417.757V428.379M735.981 417.757L731.347 428.379M731.347 428.379L728.284 435.4C727.329 437.586 725.17 439 722.784 439L601 439C597.686 439 595 436.314 595 433V428.379M731.347 428.379L595 428.379" stroke="black"/>
<path d="M1408 689.5H320.294C316.207 689.5 313.317 685.504 314.595 681.623L367.142 522.123C367.952 519.662 370.25 518 372.841 518H1408C1411.31 518 1414 520.686 1414 524V683.5C1414 686.814 1411.31 689.5 1408 689.5Z" fill="#B6B6B6" stroke="black"/>
<path d="M1675 535H1828C1831.31 535 1834 537.686 1834 541V592.5V669V713C1834 716.314 1831.31 719 1828 719H1675H1522C1518.69 719 1516 716.314 1516 713V669V592.5V541C1516 537.686 1518.69 535 1522 535H1675Z" fill="#B6B6B6"/>
<path d="M1675 535H1828C1831.31 535 1834 537.686 1834 541V592.5M1675 535H1522C1518.69 535 1516 537.686 1516 541V592.5M1675 535V614.5M1675 719H1522C1518.69 719 1516 716.314 1516 713V669M1675 719H1828C1831.31 719 1834 716.314 1834 713V669M1675 719V647.5M1834 669C1803.83 664.667 1743.5 651.2 1743.5 632C1743.5 612.8 1803.83 597.667 1834 592.5M1834 669V592.5M1516 592.5C1547.5 595 1610.5 606.4 1610.5 632C1610.5 657.6 1547.5 667.333 1516 669M1516 592.5V669M1675 614.5C1667.33 614.333 1656.5 618.5 1656.5 632C1656.5 643 1667.5 647.5 1675 647.5M1675 614.5V647.5M1675 614.5C1682 614.5 1693.5 620.5 1693.5 632C1693.5 643.5 1684 647.5 1675 647.5" stroke="black"/>
</svg>
